<?xml version="1.0" standalone="no"?>
<!DOCTYPE svg PUBLIC "-//W3C//DTD SVG 1.1//EN" "http://www.w3.org/Graphics/SVG/1.1/DTD/svg11.dtd" >
<svg xmlns="http://www.w3.org/2000/svg">
<metadata>
Created by FontForge 20120731 at Fri Aug  5 16:39:10 2016
 By admin
</metadata>
<defs>
<font id="iconfont" horiz-adv-x="1024" >
  <font-face 
    font-family="iconfont"
    font-weight="500"
    font-stretch="normal"
    units-per-em="1024"
    panose-1="2 0 6 3 0 0 0 0 0 0"
    ascent="896"
    descent="-128"
    x-height="792"
    bbox="0 -196 1024 896"
    underline-thickness="50"
    underline-position="-100"
    unicode-range="U+0078-E622"
  />
<missing-glyph horiz-adv-x="374" 
d="M34 0v682h272v-682h-272zM68 34h204v614h-204v-614z" />
    <glyph glyph-name=".notdef" horiz-adv-x="374" 
d="M34 0v682h272v-682h-272zM68 34h204v614h-204v-614z" />
    <glyph glyph-name=".null" horiz-adv-x="0" 
 />
    <glyph glyph-name="nonmarkingreturn" horiz-adv-x="341" 
 />
    <glyph glyph-name="x" unicode="x" horiz-adv-x="1001" 
d="M281 543q-27 -1 -53 -1h-83q-18 0 -36.5 -6t-32.5 -18.5t-23 -32t-9 -45.5v-76h912v41q0 16 -0.5 30t-0.5 18q0 13 -5 29t-17 29.5t-31.5 22.5t-49.5 9h-133v-97h-438v97zM955 310v-52q0 -23 0.5 -52t0.5 -58t-10.5 -47.5t-26 -30t-33 -16t-31.5 -4.5q-14 -1 -29.5 -0.5
t-29.5 0.5h-32l-45 128h-439l-44 -128h-29h-34q-20 0 -45 1q-25 0 -41 9.5t-25.5 23t-13.5 29.5t-4 30v167h911zM163 247q-12 0 -21 -8.5t-9 -21.5t9 -21.5t21 -8.5q13 0 22 8.5t9 21.5t-9 21.5t-22 8.5zM316 123q-8 -26 -14 -48q-5 -19 -10.5 -37t-7.5 -25t-3 -15t1 -14.5
t9.5 -10.5t21.5 -4h37h67h81h80h64h36q23 0 34 12t2 38q-5 13 -9.5 30.5t-9.5 34.5q-5 19 -11 39h-368zM336 498v228q0 11 2.5 23t10 21.5t20.5 15.5t34 6h188q31 0 51.5 -14.5t20.5 -52.5v-227h-327z" />
    <glyph glyph-name="uniE600" unicode="&#xe600;" 
d="M494 96h38v-128h-38v128zM916 820h-806q-30 0 -50.5 -21t-20.5 -50v-582q0 -30 20.5 -50.5t50.5 -20.5h332v-128h-108q-11 0 -18.5 -7.5t-7.5 -18t7.5 -18t18.5 -7.5h358q11 0 18.5 7.5t7.5 18t-7.5 18t-18.5 7.5h-109v128h333q29 0 49.5 20.5t20.5 50.5v582
q0 29 -20.5 50t-49.5 21zM532 -32h-38v128h38v-128zM935 231h-845v51h845v-51z" />
    <glyph glyph-name="uniE601" unicode="&#xe601;" 
d="M512 505q-59 0 -101 -42t-42 -101.5t42 -101t101 -41.5t101 41.5t42 101t-42 101.5t-101 42zM869 674h-134l-89 90h-268l-89 -90h-134q-38 0 -64 -25t-26 -64v-486q0 -39 26.5 -67t63.5 -28h714q38 0 64 25.5t26 64.5v491q0 39 -26 64t-64 25zM512 138q-94 0 -158.5 65
t-64.5 158.5t64.5 158.5t158.5 65t158.5 -65t64.5 -158.5t-64.5 -158.5t-158.5 -65z" />
    <glyph glyph-name="uniE602" unicode="&#xe602;" 
d="M952 110h-880q-28 0 -48 20t-20 48v578q0 28 20 48.5t48 20.5h880q29 0 49 -20.5t20 -48.5v-578q0 -28 -20 -48t-49 -20zM72 784q-11 0 -19 -8.5t-8 -19.5v-578q0 -11 8 -19t19 -8h880q12 0 20 8t8 19v578q0 11 -8 19.5t-20 8.5h-880zM461 127h103v-202h-103v202z
M696 -94h-367v22q0 26 18 43.5t43 17.5h245q25 0 43 -17.5t18 -43.5v-22zM27 279h968v-41h-968v41zM485 192q0 -11 8 -19.5t20 -8.5t20.5 8.5t8.5 19.5q0 12 -8.5 20.5t-20.5 8.5t-20 -8.5t-8 -20.5z" />
    <glyph glyph-name="uniE603" unicode="&#xe603;" 
d="M512 896q-138 0 -256 -69t-187 -187t-69 -256t69 -256t187 -187t256 -69t256 69t187 187t69 256t-69 256t-187 187t-256 69zM621 128l-39 128h-147l-38 -128h-122l160 512h154l160 -518h-128v6zM506 557q-16 -77 -26 -103l-32 -108h115l-32 108q-3 16 -12.5 51.5
t-12.5 51.5z" />
    <glyph glyph-name="uniE604" unicode="&#xe604;" horiz-adv-x="1000" 
d="M263 -18q-28 0 -49 18t-21 56v308h-64q-19 0 -35 20q-17 21 -17 49v8l411 426q7 7 20 7q15 0 22 -7q2 -2 414 -422l6 -6v-8q0 -27 -9 -43q-14 -22 -41 -22h-62l-1 -313v-2q-4 -17 -15 -33q-24 -36 -64 -36h-152v20q1 282 0 293q0 4 -3 10.5t-7 6.5h-164q-4 0 -7.5 -5
t-3.5 -11v-314h-154h-4zM131 403h102v-347q0 -34 30 -34h2h1h1h114v274q0 22 15 39t36 17h164q25 0 40 -23q10 -16 10 -33q1 -11 0 -274h112q28 0 39 37l1 346h102q5 0 6 3q3 5 4 15q-363 370 -401 408l-392 -405q3 -16 14 -23z" />
    <glyph glyph-name="uniE605" unicode="&#xe605;" 
d="M661 414q-25 24 -44 42l-34 31q-14 13 -16 15q-25 24 -56.5 22.5t-53.5 -22.5q-3 -3 -17 -16t-35 -32q-25 -23 -45 -41l-50 -46q-60 -55 -133 -121v-346q0 -21 15.5 -33t40.5 -12h176v6v152q0 36 25.5 61.5t61.5 25.5h32q36 0 61.5 -25.5t25.5 -61.5v-152v-6h176
q25 1 39.5 16.5t14.5 34.5v338q-74 68 -134 124zM959 333.5q-1 21.5 -19 39.5l-23 22q-17 17 -42 41t-54 53q-30 29 -62 59q-31 31 -61 60q-32 31 -55 53q-25 24 -41 40q-17 16 -23 21q-27 26 -66.5 26t-73.5 -33q-4 -5 -31 -30.5t-65 -60.5q-39 -37 -82 -77
q-40 -37 -83 -77q-38 -35 -65.5 -61t-33.5 -31q-14 -14 -15 -36.5t17 -38.5q16 -15 38.5 -14t35.5 12q4 3 26 23.5t52.5 49t65.5 61.5q37 33 68 63q32 30 57 53q24 23 33 31q27 24 54.5 25t56.5 -25q6 -6 29 -28t55 -53q34 -31 69 -64q38 -37 67 -64q35 -33 55 -52
q23 -21 27 -25q13 -11 35.5 -12t39.5 14q15 14 14 35.5z" />
    <glyph glyph-name="uniE606" unicode="&#xe606;" 
d="M508.5 481q-51.5 0 -87.5 -36t-36 -87t36 -87t87.5 -36t87.5 36t36 87t-36 87t-87.5 36zM935 139l-1 -1v4v449q0 22 -15.5 37t-36.5 15h-159l-1 2l-20 41q-3 7 -8 15.5t-18 21t-26 12.5h-278q-13 0 -26 -13t-18 -21.5t-7 -14.5l-21 -41l-1 -2h-158q-22 0 -37.5 -15
t-15.5 -37v-506q0 -22 15.5 -37t37.5 -15h741q21 0 36.5 15t15.5 37v52v1q1 1 2 1h-1zM509 180q-74 0 -126.5 52.5t-52.5 126t52.5 125.5t126.5 52t126 -52t52 -125.5t-52 -126t-126 -52.5zM782.5 489q-17.5 0 -29.5 12t-12 29.5t12 29.5t29.5 12t29.5 -12t12 -29.5
t-12 -29.5t-29.5 -12zM873 140z" />
    <glyph glyph-name="uniE607" unicode="&#xe607;" 
d="M1014 -96q-27 139 -120.5 244.5t-226.5 147.5q75 42 120 116.5t45 163.5q0 87 -43 160.5t-116.5 116.5t-160.5 43t-161 -43t-116.5 -116.5t-42.5 -160.5q0 -89 45 -163.5t120 -116.5q-131 -41 -224.5 -143.5t-121.5 -238.5l-2 -8v-1v-1q0 -13 9.5 -22.5t22.5 -9.5
t22.5 9.5t9.5 22.5q33 152 156 252t282.5 100t282.5 -100t156 -252q0 -13 9.5 -22t22.5 -9t22 9t10 22zM256 576q0 106 75 181t181 75t181 -75t75 -181t-75 -181t-181 -75t-181 75t-75 181z" />
    <glyph glyph-name="uniE608" unicode="&#xe608;" 
d="M474 818q-18 0 -28 -8t-15 -8q-4 -1 -11.5 1t-35.5 -4q-23 -4 -40 -24.5t-23 -38.5t-8 -34q-5 -48 -1 -125q2 -9 -1 -14.5t-7 -6.5h-4q-14 1 -18 -22t-1 -46l2 -23q1 -3 2 -10t1.5 -9.5t3 -8t6.5 -8.5t11.5 -7t18.5 -9q10 -26 29 -49t34 -32l14 -10q0 -36 1 -64
q0 1 -0.5 -6t-5 -18.5t-15 -24t-37 -24t-65.5 -16.5q-33 -5 -60.5 -12.5t-44.5 -14t-33.5 -17t-22.5 -15.5t-17 -17t-13 -13q-25 -24 -25 -144l894 -1q0 14 -2 34.5t-10.5 60t-19.5 50.5q-1 0 -13.5 13t-18 17t-23 15.5t-34 17.5t-44 13.5t-61.5 12.5q-27 4 -48 11t-33 15.5
t-19.5 17t-10 17.5t-3 15.5t0.5 12.5v5l1 56q6 4 14.5 12t26.5 33t28 51q6 4 17 10.5t14.5 9t9 7t7.5 9.5t4 12v3q0 2 0.5 8.5t0.5 12.5v15q0 8 -1 15t-2.5 14.5t-4 12.5t-6.5 8.5t-9 3.5q-1 0 -4 -1t-6 3.5t0 13.5q3 19 3 54.5t-3 56.5q0 3 -0.5 15t-1.5 20t-4 20.5
t-8 20.5t-14 15t-21 10q-18 3 -34 2t-21 0q-6 1 -28 23t-40 22z" />
    <glyph glyph-name="uniE609" unicode="&#xe609;" 
d="M520 -51q-140 0 -260 67l-202 -57l48 202q-67 104 -67 221q0 88 38 169t102.5 140t153.5 94t186.5 35t186.5 -35t153.5 -94t103 -140t38.5 -169q0 -87 -38.5 -167t-103 -138t-153.5 -93t-186 -35v0zM270 79l9 -5q113 -67 241 -67q116 0 214.5 51.5t156 140t57.5 193
t-57.5 193t-156 140t-214.5 51.5t-214.5 -51.5t-156 -140t-57.5 -192.5q0 -101 62 -202l5 -10l-34 -140zM775 386.5q0 -21.5 -16 -37t-37.5 -15.5t-37 15.5t-15.5 37t15.5 37.5t37 16t37.5 -16t16 -37.5zM597 386.5q0 -21.5 -15.5 -37t-37.5 -15.5t-37.5 15.5t-15.5 37
t15.5 37.5t37.5 16t37.5 -16t15.5 -37.5zM419 386.5q0 -21.5 -15.5 -37t-37.5 -15.5t-37.5 15.5t-15.5 37t15.5 37.5t37.5 16t37.5 -16t15.5 -37.5z" />
    <glyph glyph-name="uniE60A" unicode="&#xe60a;" 
d="M509 291q-122 0 -208 86.5t-86 208t86 207.5t208 86t208 -86t86 -207.5t-86 -208t-208 -86.5zM509 849q-109 0 -186.5 -77t-77.5 -186.5t77.5 -187t186.5 -77.5t186.5 77.5t77.5 187t-77.5 186.5t-186.5 77zM991 -115h-965q-6 0 -10 4t-5 10v6v11q0 108 44 207
q44 94 122 164q11 10 21 -1.5t-1 -21.5q-75 -66 -115.5 -157.5t-40.5 -190.5v-1h936v1q0 142 -80.5 261t-212.5 173q-35 -27 -77 -42q-47 -17 -98 -17t-98 17q-46 17 -84 47q-12 9 -3 21t21 2q72 -57 164 -57t164 57q6 6 14 3q70 -27 129 -73t101 -107q90 -128 90 -285v-11
q0 -4 -1 -6q0 -6 -4 -10t-11 -4z" />
    <glyph glyph-name="uniE60B" unicode="&#xe60b;" 
d="M512 -128q104 0 199 40.5t163.5 109t109 163.5t40.5 199t-40.5 199t-109 163.5t-163.5 109t-199 40.5t-199 -40.5t-163.5 -109t-109 -163.5t-40.5 -199t40.5 -199t109 -163.5t163.5 -109t199 -40.5zM512 832q91 0 174 -35.5t143 -95.5t95.5 -143t35.5 -174t-35.5 -174
t-95.5 -143t-143 -95.5t-174 -35.5t-174 35.5t-143 95.5t-95.5 143t-35.5 174q0 185 131.5 316.5t316.5 131.5zM512 696q77 0 131 -53.5t54 -129.5t-54 -130t-131 -54t-131 54t-54 130t54 129.5t131 53.5zM512 382q55 0 93.5 38.5t38.5 92.5t-38.5 92.5t-93.5 38.5
t-93.5 -38.5t-38.5 -93t38.5 -92.5t93.5 -38zM512 382q109 0 186.5 -77t77.5 -185h-53q0 87 -62 148t-149 61t-149 -61t-62 -148h-53q0 108 77.5 185t186.5 77zM512 382z" />
    <glyph glyph-name="uniE60C" unicode="&#xe60c;" 
d="M511.5 822q-97.5 0 -186.5 -34.5t-153 -92.5t-102 -138t-38 -168q0 -80 31.5 -154.5t91.5 -134.5l-40 -172l207 63q91 -35 190 -35q97 0 186 34.5t153.5 92.5t102.5 138t38 168t-38 168t-102.5 138t-153.5 92.5t-186.5 34.5zM343 341q-21 0 -36 14.5t-15 35.5t15 36
t36 15t35.5 -15t14.5 -36t-14.5 -35.5t-35.5 -14.5zM512 341q-21 0 -36 14.5t-15 35.5t15 36t36 15t35.5 -15t14.5 -36t-14.5 -35.5t-35.5 -14.5zM680.5 341q-20.5 0 -35.5 14.5t-15 35.5t15 36t35.5 15t35.5 -15t15 -36t-15 -35.5t-35.5 -14.5z" />
    <glyph glyph-name="uniE60D" unicode="&#xe60d;" 
d="M386 258l381 -383q12 -12 12 -29.5t-12.5 -29.5t-29.5 -12t-29 12l-449 452q0 1 -1 2h-1q-1 1 -1.5 2.5t-1.5 2.5q-5 6 -7 14q-1 3 -1 6q-3 21 11 35h1l2 2l448 452q12 12 29 12t29.5 -12t12.5 -29.5t-12 -29.5l-381 -383q-23 -22 -23 -44q0 -9 5.5 -19t11.5 -15z" />
    <glyph glyph-name="uniE60E" unicode="&#xe60e;" 
d="M956 758q-4 -119 -50 -239q-56 -143 -161 -239q-8 -8 -7 -19q2 -12 4 -37t3 -37q10 -88 -60 -138q-39 -28 -153 -103q-25 -16 -49 -4t-27 40q-5 52 -11 133q-1 17 -3.5 20t-18.5 5q-87 12 -132 84q-22 35 -26 82q-1 11 -13 12q-83 4 -138 8q-28 2 -40 27t3 50q0 1 45 70
q6 10 22.5 36t25.5 40q45 70 126 71q12 0 93 -9q9 -1 14 5q101 113 262 171q85 31 176 41q54 5 91 -2q12 -2 15 -5t5 -15q5 -29 4 -48zM782 554q0 41 -29 71.5t-69 30.5q-43 1 -73.5 -27.5t-31.5 -74.5q-1 -40 29.5 -70.5t70.5 -30.5q42 0 72 29.5t31 71.5zM185 244
q19 0 26 -20q29 -82 104 -124q16 -9 35 -15q17 -6 20 -19.5t-9 -25.5t-36 -36.5t-36 -36.5q-13 -13 -28 -7q-17 6 -17 24q-1 4 -1 12v10q0 11 -1.5 12t-11.5 -2q-14 -5 -41 -13.5t-40 -13.5q-14 -4 -23 1q-18 10 -11 32q5 16 15.5 47.5t11.5 35.5q3 9 2 10.5t-11 1.5h-9
q-10 0 -15 1q-17 1 -23 16q-6 16 6 28l75 75q8 8 18 7z" />
    <glyph glyph-name="uniE60F" unicode="&#xe60f;" 
d="M512 896q-138 0 -256 -69t-187 -187t-69 -256t69 -256t187 -187t256 -69t256 69t187 187t69 256t-69 256t-187 187t-256 69zM730 77q-35 8 -66 18.5t-77.5 28.5t-61.5 23q-13 7 -39 7q-92 5 -158 74.5t-66 187.5q0 122 68 198.5t182 76.5q77 0 133.5 -36.5t83 -95
t26.5 -130.5q0 -82 -35 -143.5t-86 -87.5q20 -7 64 -16.5t64 -15.5zM512 602q-57 0 -92.5 -50t-35.5 -123q0 -75 34 -124t94 -49q57 0 92.5 49.5t35.5 123.5q-5 72 -39 122.5t-89 50.5z" />
    <glyph glyph-name="uniE610" unicode="&#xe610;" 
d="M754 823h-118q0 16 -12 28t-28.5 12t-28.5 -12t-12 -28h-80q0 16 -12 28t-28.5 12t-28.5 -12t-12 -28h-118q-34 0 -58.5 -24t-24.5 -58v-638q0 -34 24.5 -57.5t58.5 -23.5h44l-52 -77q-3 -5 2 -9q2 -1 4 -1q24 0 26 3l56 84h318l56 -84q2 -3 26 -3q2 0 4 1q5 4 2 9
l-52 77h44q34 0 58.5 24t24.5 57v638q0 34 -24.5 58t-58.5 24zM578 783q7 0 12 -5.5t5 -12.5v-5q0 -7 -5 -12t-12 -5h-126q-7 0 -12 5t-5 12v5q0 7 5 12.5t12 5.5h126zM334 102q-25 0 -42.5 17.5t-17.5 42.5t17.5 42.5t42.5 17.5t42.5 -17.5t17.5 -42.5t-17.5 -42.5
t-42.5 -17.5zM696 102q-25 0 -42.5 17.5t-17.5 42.5t17.5 42.5t42.5 17.5t42.5 -17.5t17.5 -42.5t-17.5 -42.5t-42.5 -17.5zM756 377q0 -15 -10 -25t-25 -10h-412q-15 0 -25 10t-10 25v211q0 14 10 24t25 10h412q15 0 25 -10t10 -24v-211z" />
    <glyph glyph-name="uniE611" unicode="&#xe611;" 
d="M768 781q8 5 22.5 21.5t27.5 24t30 4.5q18 -13 34.5 -28.5t40.5 -40.5t31 -33q5 -9 5 -18t-3.5 -16t-10 -15t-13 -13.5t-14.5 -12.5t-12 -13q-6 6 -59 58.5t-79 81.5zM64 665q1 55 43 96t97 42q52 1 467 1q-9 -10 -27 -28t-32.5 -32t-27.5 -27h-176h-176
q-35 -2 -59.5 -30.5t-21.5 -63.5q-1 -253 0 -506q-3 -35 21.5 -64t60.5 -30q274 0 530 1q32 1 56.5 25.5t24.5 56.5v174v176l87 87q0 -10 0.5 -234t-0.5 -235q-1 -50 -37 -89.5t-87 -48.5h-612q-53 6 -91.5 46.5t-38.5 92.5q-1 158 -1 590zM442 455q50 50 304 303
q70 -69 139 -138q-205 -204 -305 -303q-62 61 -138 138zM422 435q20 -19 67.5 -66.5t70.5 -69.5q-4 -2 -36 -12q-32 -8 -79.5 -22t-77.5 -22q9 32 27.5 96t27.5 96z" />
    <glyph glyph-name="uniE612" unicode="&#xe612;" 
d="M782 687h4q17 0 29 12t12 28v33h28q17 0 28.5 12t11.5 28v33h-765v-33q0 -16 11.5 -28t28.5 -12h27v-33q0 -16 12 -28t29 -12h4q0 -165 108 -254q22 -20 31 -29q11 -12 12 -19q1 -14 -26 -37h-1q-124 -89 -124 -267h-4q-17 0 -29 -12t-12 -28v-33h-27q-17 0 -28.5 -11.5
t-11.5 -28.5v-33h765v33q0 17 -11.5 28.5t-28.5 11.5h-28v33q0 16 -12 28t-29 12h-4q0 177 -124 266l-1 1q-27 23 -26 37q1 7 12 19l34 32q105 89 105 251zM654 498q-7 -9 -24 -23q-13 -12 -26 -22q-29 -29 -32 -48h-1q-10 -53 34 -90q23 -20 22 -19l3 -3l24 -23
q21 -18 35.5 -46t20.5 -58.5t8.5 -49.5t2.5 -35h-76q0 10 -1 20.5t-2.5 19t-4.5 17.5t-5.5 16t-6.5 14t-7 12t-7 10.5t-6 8t-4.5 6.5t-3.5 4q-3 5 -9 11.5t-18 20t-24 28.5q-31 35 -12 122q3 10 12 24.5t16.5 24t20.5 24.5t14 17q7 7 10.5 15t3.5 11v4h-195q-2 -13 13 -30
q1 -2 14.5 -17t21 -24.5t16.5 -24t11 -24.5q19 -87 -11 -122q-12 -15 -24.5 -28.5t-18.5 -20t-9 -11.5l-3 -4q-3 -4 -5 -6.5t-6 -8t-6.5 -10.5t-6.5 -12t-7 -14t-6 -16t-4.5 -17.5t-2.5 -19t-1 -20.5h-77q1 16 3 35t8 49.5t20.5 58.5t35.5 46q8 9 25 23l2 2l1 1q-2 -1 21 19
q44 37 34 90q-4 19 -33 48q-13 10 -25 22l-25 23q-27 22 -43 66t-19.5 71t-4.5 51h417q-1 -24 -4 -51t-19.5 -71t-43.5 -66z" />
    <glyph glyph-name="uniE613" unicode="&#xe613;" 
d="M576 396q-32 -14 -33 -41q1 27 33 41q42 18 69 59.5t28 87.5q-1 -46 -28 -87.5t-69 -59.5zM92 53q31 -10 134.5 -16.5t232.5 -1t198 28.5q260 86 303 324q18 99 -18.5 194.5t-117.5 164t-187 92.5q-81 16 -156.5 10.5t-142.5 -36t-119 -76t-86.5 -109.5t-43.5 -136
q-10 -81 16 -163q23 -72 11 -129q-7 -34 -30 -61q-12 -14 -19 -23q-14 -22 -7.5 -38.5t32.5 -24.5zM448 202q0 23 16.5 38.5t40 16t39.5 -15.5t16 -39q0 -24 -16 -40t-39 -16q-26 0 -42 16t-15 40zM342 551q12 80 36 111q30 38 81.5 52.5t98.5 -1.5q4 -1 10.5 -5t8.5 -5
q40 -19 66 -59t30 -88v-12q-1 -47 -28 -88.5t-69 -59.5q-32 -14 -33 -41v-7v-7q0 -17 -10 -28t-28 -12q-38 -2 -42 33v30q-1 33 0 46q3 44 44 52q37 6 58 30.5t20 54.5q0 15 -6 29q-10 24 -32 38.5t-47 13.5q-24 -1 -46 -19t-29 -43q-3 -12 -6 -28q-3 -20 -11 -27t-26 -6
q-18 2 -29 15t-11 31z" />
    <glyph glyph-name="uniE614" unicode="&#xe614;" 
d="M730 190q-26 0 -68 -22t-63 -22t-79.5 50t-109.5 109t-51 81q0 24 22 60t22 61q0 18 -34.5 79t-80.5 116.5t-71 55.5q-28 0 -71.5 -27.5t-79 -72.5t-35.5 -86q0 -63 37 -145.5t98 -165t142 -163.5t165.5 -142.5t173 -99.5t160.5 -38q64 0 125 57t61 129q0 16 -55 62
t-119.5 85t-88.5 39z" />
    <glyph glyph-name="uniE615" unicode="&#xe615;" 
d="M512 830q-91 0 -168 -45t-122 -122t-45 -168q0 -52 34.5 -128.5t83.5 -148.5t99 -137t83 -104t35 -40q13 15 36 41.5t80.5 101t101.5 141t80.5 144.5t36.5 130q0 91 -45 168t-122 122t-168 45zM513.5 274q-92.5 0 -158 65.5t-65.5 157.5t65.5 157.5t158 65.5t158 -65.5
t65.5 -157.5t-65.5 -157.5t-158 -65.5zM513.5 633q-57.5 0 -98.5 -41t-41 -98.5t41 -98.5t98.5 -41t98.5 41t41 98.5t-41 98.5t-98.5 41z" />
    <glyph glyph-name="uniE616" unicode="&#xe616;" 
d="M753 702q42 -30 75 -68t56.5 -82.5t36 -94t12.5 -99.5q0 -88 -33.5 -164.5t-90.5 -133.5t-133.5 -90.5t-163.5 -33.5t-163.5 33.5t-134 90.5t-90.5 133.5t-33 164.5q0 50 12 97.5t33.5 91t53.5 81t71 67.5q21 15 45 11.5t39 -23.5t11.5 -44.5t-23.5 -39.5
q-59 -43 -90.5 -106t-31.5 -135q0 -62 23.5 -117t64 -96t95.5 -65t117.5 -24t117.5 24t95.5 65t64.5 96t24 117q0 73 -33.5 138.5t-94.5 107.5q-21 14 -25.5 38.5t9.5 45.5q15 19 39 23.5t45 -9.5v0zM512 355q-25 0 -42.5 17.5t-17.5 41.5v357q0 25 17.5 43t42.5 18
t42.5 -18t17.5 -43v-357q0 -24 -17.5 -41.5t-42.5 -17.5v0zM512 355z" />
    <glyph glyph-name="uniE617" unicode="&#xe617;" 
d="M296 625zM247.5 587q22.5 0 38.5 19.5t16 47.5v75q0 28 -16 47.5t-38.5 19.5t-38.5 -19.5t-16 -47.5v-75q0 -28 16 -47.5t38.5 -19.5zM955 659q-1 17 -7 29.5t-14.5 17.5t-17 7.5t-14.5 2.5h-6h-32v-106q0 -2 -0.5 -5t-3 -11t-7 -14.5t-14 -11.5t-21.5 -5h-9h-70h-13
q-20 1 -31 12.5t-12 22.5v11v107h-344v-107v-5q0 -3 -2 -10.5t-6 -13.5t-13.5 -11t-22.5 -6h-12h-70h-9q-20 0 -31.5 12t-13.5 23l-1 12v106h-32h-6q-4 0 -14 -2.5t-18 -7.5t-14.5 -17.5t-7.5 -29.5v-4v-591q0 -17 6.5 -29.5t15 -18t19 -9t14.5 -4t7 -0.5h766q2 0 6.5 0.5
t15 4t18.5 9t14.5 18t6.5 29.5v41v87q0 53 0.5 115t0.5 123v112v82v31q-1 2 -1 4zM512 128q0 -57 -172 -57q-174 0 -174 57v12q0 24 34.5 47.5t79.5 40.5q4 1 7.5 4.5t7 12t-2.5 21.5q-20 20 -33 50.5t-13 60.5q0 47 27 73t66.5 26t66 -26t26.5 -73q0 -30 -12.5 -60
t-32.5 -51q-6 -14 -3 -23t6 -11.5t5 -3.5q47 -16 82 -39.5t35 -48.5v-12zM817 149h-194q-17 0 -29.5 12t-12.5 29.5t12.5 29.5t29.5 12h194q18 0 30 -12t12 -29.5t-12 -29.5t-30 -12zM817 314h-194q-17 0 -29.5 12.5t-12.5 29.5t12.5 29.5t29.5 12.5h194q18 0 30 -12.5
t12 -29.5t-12 -29.5t-30 -12.5zM774.5 587q22.5 0 38.5 19.5t16 47.5v75q0 28 -17 47.5t-40 19.5q-22 0 -37 -19.5t-15 -47.5v-75q0 -28 16 -47.5t38.5 -19.5z" />
    <glyph glyph-name="uniE618" unicode="&#xe618;" 
d="M592 455h142q16 0 27.5 12t11.5 28t-11.5 27.5t-27.5 11.5h-142q-16 0 -27.5 -11.5t-11.5 -27.5t11.5 -28t27.5 -12zM592 613h142q16 0 27.5 11.5t11.5 28t-11.5 28t-27.5 11.5h-142q-16 0 -27.5 -11.5t-11.5 -28t11.5 -28t27.5 -11.5zM359 433h1v0q43 0 74 7.5t40 15.5
l10 8q-1 1 0 6t-1.5 16t-6.5 22.5t-14.5 23.5t-25.5 21l-39 16q-6 6 -7 14l1 6q13 9 20 27q10 0 11.5 16.5t-4.5 18.5q7 71 -58 71v1v-1h-1v1v-1q-64 0 -58 -71q-6 -2 -4 -18.5t11 -16.5q7 -18 21 -27v-6q-1 -3 -2.5 -6.5t-2.5 -5.5l-2 -2l-39 -16q-24 -14 -36 -36t-12 -38
v-15q3 -4 10.5 -9t39 -13.5t74.5 -8.5zM838 896h-663q-48 0 -82 -34.5t-34 -83.5v-788q0 -49 34 -83.5t82 -34.5h663q49 0 83 34.5t34 83.5v788q0 49 -34 83.5t-83 34.5zM845 69q0 -41 -28 -69.5t-67 -28.5h-486q-39 0 -67 28.5t-28 69.5v630q0 41 28 69.5t67 28.5h485
q40 0 68 -28.5t28 -69.5v-630zM746 175h-462q-16 0 -27.5 -11.5t-11.5 -28t11.5 -28t27.5 -11.5h462q16 0 27.5 11.5t11.5 28t-11.5 28t-27.5 11.5zM748 352h-455q-16 0 -27 -12.5t-11 -30t11 -30t27 -12.5h455q16 0 27.5 12.5t11.5 30t-11.5 30t-27.5 12.5z" />
    <glyph glyph-name="uniE619" unicode="&#xe619;" 
d="M725 381v91h82l-271 182v45l160 78q0 1 -52 27l-106 50l-52 26v-226l-269 -182h81v-91l-267 1v-151l54 -1v-357h324v52h217v-52h313v357l55 1l-1 150h-268zM277 -34h-83v86h83v-86zM277 99h-83v86h83v-86zM512 268q-46 0 -79 33t-33 79t33 79t79 33t79 -33t33 -79
t-33 -79t-79 -33zM830 -34h-83v86h83v-86zM830 99h-83v86h83v-86z" />
    <glyph glyph-name="uniE61A" unicode="&#xe61a;" 
d="M615 330h-205q-94 0 -173.5 -45.5t-126 -124t-46.5 -170.5v-20q0 -24 11 -41.5t37.5 -27.5t50.5 -16.5t73 -9t80 -3t94 -0.5h205h69q23 0 62.5 1.5t60 4t50 7t44.5 11.5t30.5 17t22 24.5t6.5 32.5v20q0 92 -46 170.5t-125.5 124t-173.5 45.5zM502 356q113 0 193.5 79
t80.5 190.5t-80.5 190.5t-193.5 79t-193 -79t-80 -190.5t80 -190.5t193 -79z" />
    <glyph glyph-name="uniE61B" unicode="&#xe61b;" 
d="M864 267q18 22 26.5 37.5t5 28.5t-9 20.5t-20.5 22.5q-13 13 -19.5 18t-19.5 8.5t-30 -4t-39 -24.5zM727 346q-8 -7 -17 -16l-166 -167q-18 -17 -38.5 -83.5t-10.5 -76.5q11 -10 76 9.5t82 39.5q165 166 166 167q9 8 17 17zM534 185v374q27 36 89 58.5t121 22.5v-195
l1 -1q41 21 86 8v316q-10 0 -28 -1.5t-67 -9.5t-91.5 -19.5t-90 -34.5t-74.5 -52q-27 29 -74 52t-91.5 35t-90.5 19t-68 9t-27 2q-1 -513 -1 -555q0 -25 8 -42.5t19.5 -25.5t23 -12t19.5 -5h8q35 -5 69 -13t51 -13l17 -6q4 -2 10.5 -4.5t24.5 -12t32.5 -20t29.5 -27
t20 -32.5h12q-15 98 62 185zM426 170q-34 24 -84 40t-77 20t-33 4q-2 0 -4.5 0.5t-7 5t-4.5 12.5v388q59 0 121 -22.5t89 -58.5v-389z" />
    <glyph glyph-name="uniE61C" unicode="&#xe61c;" 
d="M809 728h-597q-17 0 -29.5 -12.5t-12.5 -30.5v-342q0 -18 12.5 -30.5t29.5 -12.5h257v-407q0 -9 6 -15.5t15 -6.5h42q9 0 15 6.5t6 15.5v407h256q18 0 30.5 12.5t12.5 30.5v342q0 18 -12.5 30.5t-30.5 12.5zM767 385h-512v257h512v-257zM684 555h-345v-85h345v85z" />
    <glyph glyph-name="uniE61D" unicode="&#xe61d;" 
d="M784 347q45 62 67 105.5t22 88.5q0 81 -55.5 138t-134.5 57t-134.5 -57t-55.5 -138q0 -41 19.5 -83t56.5 -95l-52 -18l-101 34q20 36 20 67q0 46 -30.5 78.5t-73.5 32.5t-73 -32.5t-30 -78.5q0 -33 25 -76l-142 -338l214 86l196 -86l183 86l212 -86zM683 636q38 0 65 -28
t27 -67t-27 -67t-65 -28t-65.5 28t-27.5 67t27.5 67t65.5 28zM332 500q21 0 36 -16t15 -38t-15 -38t-35.5 -16t-35.5 16t-15 38t15 38t35 16zM701 169l-180 -83l-191 83l-143 -69l82 225l13 2q38 -53 50 -74q12 20 60 89l125 -43l78 27q63 -86 88 -126q28 46 79 116l83 -219
z" />
    <glyph glyph-name="uniE61E" unicode="&#xe61e;" 
d="M448 860l-42 7l42 -142h43zM611 860l-113 -248h57l99 255zM756 704h-123l-36 -92q5 0 9.5 -4.5t4.5 -10.5v-14q0 -5 -4.5 -9.5t-9.5 -4.5h-156q-5 0 -9.5 4.5t-4.5 9.5v29l42 92h-205q-37 0 -64.5 -27.5t-27.5 -64.5v-582q0 -37 27.5 -64.5t64.5 -27.5h496
q37 0 64.5 27.5t27.5 64.5v582q0 3 -0.5 9.5t-5.5 22.5t-14 28.5t-29 22t-47 9.5zM647 73h-256q-2 0 -5 0.5t-11.5 4t-15 7.5t-12 12t-5.5 18q0 38 71 78q3 2 20 13t29 16q0 2 7.5 14.5t7.5 20.5q-25 16 -43 71q-7 14 -7 43q0 42 27.5 74t64.5 32t64.5 -32t27.5 -74
q0 -22 -14 -50q0 -1 -6 -13.5t-10 -20t-11.5 -19t-14.5 -18.5q0 -6 3 -11t10 -11t8 -6q28 -15 49 -36q34 -22 49 -39.5t15 -38.5q3 -9 -7.5 -18t-22.5 -13z" />
    <glyph glyph-name="uniE61F" unicode="&#xe61f;" 
d="M763 329l-448 408q-11 11 -26.5 11t-26.5 -11t-11 -26.5t11 -26.5l421 -384l-421 -383q-11 -11 -11 -26.5t11 -26.5t26.5 -11t26.5 11l448 408q11 12 10 28q1 17 -10 29z" />
    <glyph glyph-name="uniE620" unicode="&#xe620;" 
d="M846 767h-615v-102h-75q-11 0 -19 -7t-8 -17v-51q0 -11 8.5 -19t18.5 -8h75v-51h-75q-11 0 -19 -7t-8 -17v-51q0 -11 8.5 -19t18.5 -8h75v-52h-75q-11 0 -19 -6.5t-8 -17.5v-51q0 -10 8.5 -18.5t18.5 -8.5h75v-51h-75q-11 0 -19 -7t-8 -17v-51q0 -10 8.5 -18.5t18.5 -8.5
h75v-102h615q21 0 35 15.5t14 36.5v664q0 22 -14 36t-35 14zM635.5 574q39.5 0 67 -27.5t27.5 -67t-27.5 -67.5t-67 -28t-67 28t-27.5 67.5t27.5 67t67 27.5zM384 52h-102v51h28q10 0 16.5 8t6.5 19v51q0 11 -6.5 17.5t-16.5 6.5h-28v51h28q10 0 16.5 8t6.5 19v51
q0 11 -6.5 17.5t-16.5 6.5h-28v52h28q10 0 16.5 8t6.5 19v51q0 10 -6.5 17t-16.5 7h-28v51h28q10 0 16.5 8t6.5 19v51q0 11 -6.5 17.5t-16.5 6.5h-28v51h102v-664zM778 194h-285v47q0 40 28 68t67 28h95q39 0 67 -28t28 -68v-47z" />
    <glyph glyph-name="uniE621" unicode="&#xe621;" 
d="M779 484h-23v112q0 83 -67.5 135.5t-168 52.5t-168 -52.5t-67.5 -135.5v-112h-40q-37 0 -63 -26t-26 -62v-324q0 -36 26 -62t63 -26h534q37 0 63 26t26 62v324q0 36 -26 62t-63 26zM568 182v-61q0 -18 -14 -30.5t-33.5 -12.5t-33 12.5t-13.5 30.5v61q-22 9 -35 25.5
t-13 35.5q0 29 28 49.5t67 20.5t66.5 -20.5t27.5 -49.5q0 -19 -13 -35.5t-34 -25.5zM662 511q0 -14 -5 -27h-273q-5 13 -5 27v76q0 42 41.5 72.5t100 30.5t100 -30.5t41.5 -72.5v-76z" />
    <glyph glyph-name="uniE622" unicode="&#xe622;" 
d="M512 300zM192 300q0 132 94 226t226 94t226 -94t94 -226t-94 -226t-226 -94t-226 94t-94 226z" />
  </font>
</defs>
</svg>
